<svg width="24" height="25" viewBox="0 0 24 25" fill="none" xmlns="http://www.w3.org/2000/svg">
<g id="Group">
<g id="Group_2">
<g id="Group_3">
<path id="Vector" d="M14.2812 0.979004H9.69088C9.22141 0.979004 8.84082 1.43958 8.84082 2.00772V23.9434C8.84082 24.5115 9.22141 24.9721 9.69088 24.9721H14.2812C14.7507 24.9721 15.1313 24.5115 15.1313 23.9434V2.00772C15.1313 1.43952 14.7507 0.979004 14.2812 0.979004Z" fill="#209A75"/>
<path id="Vector_2" d="M23.1498 13.7695H18.5595C18.0901 13.7695 17.7095 14.2301 17.7095 14.7982V23.9504C17.7095 24.5186 18.0901 24.9791 18.5595 24.9791H23.1498C23.6193 24.9791 23.9999 24.5186 23.9999 23.9504V14.7982C23.9999 14.23 23.6193 13.7695 23.1498 13.7695Z" fill="#209A75"/>
<path id="Vector_3" d="M5.44038 9.17432H0.850059C0.38059 9.17432 0 9.6349 0 10.203V23.9364C0 24.5046 0.38059 24.9651 0.850059 24.9651H5.44038C5.90985 24.9651 6.29044 24.5046 6.29044 23.9364V10.203C6.29044 9.6349 5.90985 9.17432 5.44038 9.17432Z" fill="#209A75"/>
</g>
</g>
</g>
</svg>
