<svg width="24" height="24" viewBox="0 0 24 24" fill="none" xmlns="http://www.w3.org/2000/svg">
<g id="iconoir:apple-mac">
<g id="Group">
<path id="Vector" d="M16 2C16.363 4.18 14.088 5.83 12.816 6.571C12.441 6.79 12.017 6.511 12.082 6.082C12.299 4.64 13.094 2 16 2Z" stroke="white" stroke-width="1.5"/>
<path id="Vector_2" d="M9 6.5C9.897 6.5 10.69 6.7 11.294 6.92C12.0738 7.199 12.9262 7.199 13.706 6.92C14.4402 6.64697 15.2167 6.50482 16 6.5C17.085 6.5 18.465 7.089 19.5 8.267C16 11 17 15.5 20.269 16.692C19.225 19.559 17.241 21.5 15.499 21.5C13.999 21.5 14 20.8 12.5 20.8C11 20.8 11 21.5 9.5 21.5C7 21.5 4 17.5 4 12.5C4 8.5 7 6.5 9 6.5Z" stroke="white" stroke-width="1.5"/>
</g>
</g>
</svg>
