<svg width="24" height="25" viewBox="0 0 24 25" fill="none" xmlns="http://www.w3.org/2000/svg">
<g id="uis:apps">
<path id="Vector" d="M10 2.48926H3C2.4 2.48926 2 2.88926 2 3.48926V10.4893C2 11.0893 2.4 11.4893 3 11.4893H10C10.6 11.4893 11 11.0893 11 10.4893V3.48926C11 2.88926 10.6 2.48926 10 2.48926ZM10 13.4893H3C2.4 13.4893 2 13.8893 2 14.4893V21.4893C2 22.0893 2.4 22.4893 3 22.4893H10C10.6 22.4893 11 22.0893 11 21.4893V14.4893C11 13.8893 10.6 13.4893 10 13.4893ZM21 2.48926H14C13.4 2.48926 13 2.88926 13 3.48926V10.4893C13 11.0893 13.4 11.4893 14 11.4893H21C21.6 11.4893 22 11.0893 22 10.4893V3.48926C22 2.88926 21.6 2.48926 21 2.48926ZM21 13.4893H14C13.4 13.4893 13 13.8893 13 14.4893V21.4893C13 22.0893 13.4 22.4893 14 22.4893H21C21.6 22.4893 22 22.0893 22 21.4893V14.4893C22 13.8893 21.6 13.4893 21 13.4893Z" fill="#209A75"/>
</g>
</svg>
