<svg width="49" height="49" viewBox="0 0 49 49" fill="none" xmlns="http://www.w3.org/2000/svg">
<g id="material-symbols:corporate-fare-rounded">
<path id="Vector" d="M8.90283 42.0859C7.80283 42.0859 6.8615 41.6946 6.07883 40.9119C5.29617 40.1293 4.90417 39.1873 4.90283 38.0859V10.0859C4.90283 8.98594 5.29483 8.0446 6.07883 7.26194C6.86283 6.47927 7.80417 6.08727 8.90283 6.08594H20.9028C22.0028 6.08594 22.9448 6.47794 23.7288 7.26194C24.5128 8.04594 24.9042 8.98727 24.9028 10.0859V14.0859H40.9028C42.0028 14.0859 42.9448 14.4779 43.7288 15.2619C44.5128 16.0459 44.9042 16.9873 44.9028 18.0859V38.0859C44.9028 39.1859 44.5115 40.1279 43.7288 40.9119C42.9462 41.6959 42.0042 42.0873 40.9028 42.0859H8.90283ZM8.90283 38.0859H20.9028V34.0859H8.90283V38.0859ZM8.90283 30.0859H20.9028V26.0859H8.90283V30.0859ZM8.90283 22.0859H20.9028V18.0859H8.90283V22.0859ZM8.90283 14.0859H20.9028V10.0859H8.90283V14.0859ZM24.9028 38.0859H40.9028V18.0859H24.9028V38.0859ZM30.9028 26.0859C30.3362 26.0859 29.8615 25.8939 29.4788 25.5099C29.0962 25.1259 28.9042 24.6513 28.9028 24.0859C28.9015 23.5206 29.0935 23.0459 29.4788 22.6619C29.8642 22.2779 30.3388 22.0859 30.9028 22.0859H34.9028C35.4695 22.0859 35.9448 22.2779 36.3288 22.6619C36.7128 23.0459 36.9042 23.5206 36.9028 24.0859C36.9015 24.6513 36.7095 25.1266 36.3268 25.5119C35.9442 25.8973 35.4695 26.0886 34.9028 26.0859H30.9028ZM30.9028 34.0859C30.3362 34.0859 29.8615 33.8939 29.4788 33.5099C29.0962 33.1259 28.9042 32.6513 28.9028 32.0859C28.9015 31.5206 29.0935 31.0459 29.4788 30.6619C29.8642 30.2779 30.3388 30.0859 30.9028 30.0859H34.9028C35.4695 30.0859 35.9448 30.2779 36.3288 30.6619C36.7128 31.0459 36.9042 31.5206 36.9028 32.0859C36.9015 32.6513 36.7095 33.1266 36.3268 33.5119C35.9442 33.8973 35.4695 34.0886 34.9028 34.0859H30.9028Z" fill="#167DB7"/>
</g>
</svg>
