<svg width="49" height="49" viewBox="0 0 49 49" fill="none" xmlns="http://www.w3.org/2000/svg">
<g id="grommet-icons:money" clip-path="url(#clip0_145_6921)">
<path id="Vector" d="M32.7085 32.0859C32.7085 29.8759 26.4405 28.0859 18.7085 28.0859M32.7085 32.0859C32.7085 34.2959 26.4405 36.0859 18.7085 36.0859C10.9765 36.0859 4.7085 34.2959 4.7085 32.0859M32.7085 32.0859V41.9599C32.7085 44.2379 26.4405 46.0859 18.7085 46.0859C10.9765 46.0859 4.7085 44.2399 4.7085 41.9599V32.0859M32.7085 32.0859C40.3565 32.0859 46.7085 30.1119 46.7085 28.0859V8.08594M18.7085 28.0859C10.9765 28.0859 4.7085 29.8759 4.7085 32.0859M18.7085 28.0859C9.8725 28.0859 2.7085 26.1119 2.7085 24.0859V14.0859M18.7085 10.0859C9.8725 10.0859 2.7085 11.8759 2.7085 14.0859M2.7085 14.0859C2.7085 16.2959 9.8725 18.0859 18.7085 18.0859C18.7085 20.1119 25.2145 22.0859 32.8625 22.0859C40.5105 22.0859 46.7085 20.1119 46.7085 18.0859M46.7085 8.08594C46.7085 5.87594 40.5085 4.08594 32.8625 4.08594C25.2165 4.08594 19.0165 5.87594 19.0165 8.08594M46.7085 8.08594C46.7085 10.2959 40.5085 12.0859 32.8625 12.0859C25.2165 12.0859 19.0165 10.2959 19.0165 8.08594M19.0165 8.08594V28.4179" stroke="#167DB7" stroke-width="2.76878"/>
</g>
<defs>
<clipPath id="clip0_145_6921">
<rect width="48" height="48" fill="white" transform="translate(0.708496 0.0859375)"/>
</clipPath>
</defs>
</svg>
