<svg width="46" height="46" viewBox="0 0 46 46" fill="none" xmlns="http://www.w3.org/2000/svg">
<g id="ri:restaurant-2-line">
<path id="Vector" d="M27.1864 23.3575L25.6119 24.932L38.6621 37.984L36.0539 40.594L23 27.5438L9.94613 40.594L7.3361 37.984L24.5745 20.7456C23.4891 18.0562 24.6114 14.1836 27.5666 11.2284C31.1716 7.62342 36.1388 6.74664 38.6602 9.26992C41.1853 11.7932 40.3086 16.7604 36.7036 20.3635C33.7465 23.3205 29.8758 24.4428 27.1864 23.3575ZM8.64296 7.96305L21.0434 20.3635L15.8215 25.5854L8.64296 18.405C7.25879 17.0204 6.4812 15.1428 6.4812 13.185C6.4812 11.2272 7.25879 9.34949 8.64296 7.9649M34.0954 17.7553C36.4157 15.4351 36.8937 12.7235 36.052 11.8818C35.2103 11.0401 32.5006 11.52 30.1804 13.8384C27.8583 16.1605 27.3802 18.872 28.2219 19.7137C29.0636 20.5555 31.7752 20.0737 34.0954 17.7553Z" fill="#167DB7"/>
</g>
</svg>
