<svg width="24" height="24" viewBox="0 0 24 24" fill="none" xmlns="http://www.w3.org/2000/svg">
<g id="Group">
<path id="Vector" fill-rule="evenodd" clip-rule="evenodd" d="M12 5.00012C10.6583 5.00046 9.34498 5.38639 8.21639 6.11193C7.0878 6.83748 6.1915 7.87209 5.63421 9.09257C5.07692 10.313 4.88212 11.668 5.073 12.996C5.26389 14.3241 5.83241 15.5693 6.71088 16.5834C7.58936 17.5975 8.74077 18.3378 10.028 18.7161C11.3153 19.0944 12.6841 19.0948 13.9716 18.7173C15.2591 18.3397 16.4109 17.6001 17.29 16.5865C18.1691 15.5729 18.7383 14.328 18.93 13.0001H13C12.7348 13.0001 12.4804 12.8948 12.2929 12.7072C12.1054 12.5197 12 12.2653 12 12.0001C12 11.7349 12.1054 11.4805 12.2929 11.293C12.4804 11.1055 12.7348 11.0001 13 11.0001H20C20.2652 11.0001 20.5196 11.1055 20.7071 11.293C20.8946 11.4805 21 11.7349 21 12.0001C21.0002 14.0813 20.2792 16.0982 18.9596 17.7075C17.64 19.3168 15.8035 20.4191 13.7627 20.8267C11.7218 21.2343 9.60281 20.922 7.7663 19.943C5.9298 18.964 4.48934 17.3788 3.69012 15.4573C2.89089 13.5357 2.78231 11.3965 3.38286 9.40392C3.9834 7.4113 5.25595 5.68839 6.98388 4.52847C8.71182 3.36855 10.7883 2.84331 12.86 3.04217C14.9316 3.24102 16.8703 4.15168 18.346 5.61912C18.5288 5.80719 18.6303 6.05953 18.6288 6.32177C18.6273 6.58402 18.5229 6.83517 18.3379 7.02113C18.153 7.20709 17.9025 7.31297 17.6402 7.31596C17.378 7.31895 17.1251 7.21881 16.936 7.03712C15.6257 5.73073 13.8503 4.99805 12 5.00012Z" fill="white"/>
</g>
</svg>
