<svg width="49" height="49" viewBox="0 0 49 49" fill="none" xmlns="http://www.w3.org/2000/svg">
<g id="iconoir:healthcare">
<g id="Group">
<path id="Vector" d="M36.8057 40.0859L44.4537 32.4379C44.6788 32.2131 44.8054 31.9081 44.8057 31.5899V21.0859C44.8057 20.2903 44.4896 19.5272 43.927 18.9646C43.3644 18.402 42.6013 18.0859 41.8057 18.0859C41.01 18.0859 40.247 18.402 39.6843 18.9646C39.1217 19.5272 38.8057 20.2903 38.8057 21.0859V30.0859" stroke="#167DB7" stroke-width="2.76878" stroke-linecap="round" stroke-linejoin="round"/>
<path id="Vector_2" d="M36.8055 32.0859L38.5215 30.3699C38.6121 30.2802 38.6838 30.1733 38.7325 30.0555C38.7813 29.9377 38.8061 29.8114 38.8055 29.6839C38.8041 29.5043 38.7534 29.3286 38.6589 29.1758C38.5643 29.0231 38.4297 28.8993 38.2695 28.8179L37.3835 28.3759C36.6329 28.0006 35.7833 27.8709 34.9549 28.0052C34.1264 28.1394 33.3612 28.5308 32.7675 29.1239L30.9775 30.9139C30.2273 31.6639 29.8058 32.6812 29.8055 33.7419V40.0859M12.8055 40.0859L5.15754 32.4379C4.93243 32.2131 4.80582 31.9081 4.80554 31.5899V21.0859C4.80554 20.2903 5.12161 19.5272 5.68422 18.9646C6.24683 18.402 7.00989 18.0859 7.80554 18.0859C8.60119 18.0859 9.36425 18.402 9.92686 18.9646C10.4895 19.5272 10.8055 20.2903 10.8055 21.0859V30.0859" stroke="#167DB7" stroke-width="2.76878" stroke-linecap="round" stroke-linejoin="round"/>
<path id="Vector_3" d="M12.8055 32.0859L11.0895 30.3699C10.9103 30.1862 10.8087 29.9406 10.8055 29.6839C10.8055 29.3179 11.0135 28.9839 11.3415 28.8179L12.2275 28.3759C12.9782 28.0006 13.8278 27.8709 14.6562 28.0052C15.4846 28.1394 16.2499 28.5308 16.8435 29.1239L18.6335 30.9139C19.3837 31.6639 19.8053 32.6812 19.8055 33.7419V40.0859M28.1395 24.0859H21.4715V19.4199H16.8055V12.7519H21.4715V8.08594H28.1395V12.7519H32.8055V19.4199H28.1395V24.0859Z" stroke="#167DB7" stroke-width="2.76878" stroke-linecap="round" stroke-linejoin="round"/>
</g>
</g>
</svg>
