<svg width="46" height="46" viewBox="0 0 46 46" fill="none" xmlns="http://www.w3.org/2000/svg">
<g id="tabler:hanger">
<path id="Vector" d="M26.5944 12.011C26.5944 11.0319 26.2055 10.0929 25.5131 9.40061C24.8208 8.70828 23.8818 8.31934 22.9027 8.31934C21.9236 8.31934 20.9846 8.70828 20.2923 9.40061C19.5999 10.0929 19.211 11.0319 19.211 12.011C19.211 15.0881 20.4477 17.5486 22.9027 19.3944H22.8879M22.8879 19.3944L37.6012 27.5679C38.177 27.8876 38.6568 28.3556 38.9908 28.9233C39.3247 29.491 39.5008 30.1376 39.5006 30.7963V32.3154C39.5006 33.2945 39.1117 34.2335 38.4193 34.9258C37.727 35.6182 36.788 36.0071 35.8089 36.0071H9.96697C8.98787 36.0071 8.04887 35.6182 7.35654 34.9258C6.66421 34.2335 6.27527 33.2945 6.27527 32.3154V30.7963C6.2751 30.1376 6.45113 29.491 6.78511 28.9233C7.11909 28.3556 7.59885 27.8876 8.17465 27.5679L22.8879 19.3944Z" stroke="#167DB7" stroke-width="3.32253" stroke-linecap="round" stroke-linejoin="round"/>
</g>
</svg>
