<svg width="45" height="46" viewBox="0 0 45 46" fill="none" xmlns="http://www.w3.org/2000/svg">
<g id="material-symbols:precision-manufacturing-outline-rounded">
<path id="Vector" d="M10.7614 39.6989C9.99225 39.6989 9.33882 39.43 8.80106 38.8923C8.26331 38.3545 7.99381 37.7005 7.99258 36.9301C7.99135 36.1598 8.26084 35.5064 8.80106 34.9698C9.34128 34.4333 9.99471 34.1638 10.7614 34.1614H13.7147L9.0078 18.7485C8.17717 18.287 7.49297 17.6102 6.95521 16.7181C6.41745 15.8259 6.14796 14.8722 6.14673 13.857C6.14673 12.3188 6.6851 11.0113 7.76185 9.93456C8.8386 8.85781 10.1461 8.31944 11.6843 8.31944C12.8841 8.31944 13.9535 8.66584 14.8924 9.35865C15.8313 10.0515 16.4847 10.9356 16.8527 12.0111H22.7594V10.1653C22.7594 9.6423 22.9366 9.20422 23.291 8.85104C23.6454 8.49787 24.0835 8.32067 24.6052 8.31944C24.8821 8.31944 25.1516 8.38096 25.4137 8.50402C25.6758 8.62708 25.8986 8.81166 26.0819 9.05778L29.2199 6.10441C29.4968 5.82754 29.8278 5.65033 30.2129 5.57281C30.5981 5.49528 30.9747 5.54943 31.3426 5.73524L38.5414 9.05778C38.9106 9.24236 39.1647 9.51186 39.3038 9.86626C39.4428 10.2207 39.4348 10.5665 39.2798 10.9036C39.0952 11.2728 38.8263 11.5115 38.4731 11.6198C38.12 11.7281 37.7736 11.7047 37.4339 11.5497L30.7889 8.50402L26.4511 12.5649V15.1491L30.7889 19.1177L37.4339 16.072C37.7723 15.9182 38.1261 15.9028 38.4953 16.0259C38.8645 16.1489 39.1259 16.3797 39.2798 16.7181C39.4644 17.0872 39.4797 17.441 39.3259 17.7794C39.1721 18.1178 38.9106 18.3793 38.5414 18.5639L31.3426 21.9787C30.9734 22.1633 30.5969 22.2169 30.2129 22.1393C29.829 22.0618 29.498 21.8852 29.2199 21.6096L26.0819 18.6562C25.8973 18.8408 25.6746 19.01 25.4137 19.1638C25.1528 19.3176 24.8834 19.3945 24.6052 19.3945C24.0823 19.3945 23.6442 19.218 23.291 18.8648C22.9378 18.5116 22.7606 18.0729 22.7594 17.5487V15.7028H16.8527C16.7604 15.949 16.6607 16.1797 16.5536 16.395C16.4466 16.6104 16.3001 16.8411 16.1143 17.0872L25.3436 34.1614H29.2199C29.989 34.1614 30.643 34.4309 31.182 34.9698C31.721 35.5088 31.9899 36.1623 31.9887 36.9301C31.9874 37.698 31.7185 38.3521 31.182 38.8923C30.6455 39.4325 29.9914 39.7014 29.2199 39.6989H10.7614ZM11.6843 15.7028C12.2073 15.7028 12.646 15.5256 13.0004 15.1712C13.3548 14.8168 13.5314 14.3788 13.5301 13.857C13.5289 13.3352 13.3523 12.8971 13.0004 12.5427C12.6484 12.1883 12.2097 12.0111 11.6843 12.0111C11.1588 12.0111 10.7207 12.1883 10.37 12.5427C10.0193 12.8971 9.84212 13.3352 9.83843 13.857C9.83474 14.3788 10.0119 14.8175 10.37 15.1731C10.7281 15.5287 11.1662 15.7053 11.6843 15.7028ZM17.4987 34.1614H21.0981L13.161 19.3945H12.9764L17.4987 34.1614Z" fill="#167DB7"/>
</g>
</svg>
