<svg width="24" height="24" viewBox="0 0 24 24" fill="none" xmlns="http://www.w3.org/2000/svg">
<path id="Vector" d="M22.6459 19.7319C20.8791 18.2408 19.8659 16.0614 19.8659 13.7526V10.5C19.8659 6.39457 16.8112 2.99605 12.8544 2.42675V1.16659C12.8544 0.521452 12.3309 0 11.6857 0C11.0408 0 10.5172 0.521452 10.5172 1.16659V2.42675C6.55914 2.99605 3.50574 6.39457 3.50574 10.5V13.7526C3.50574 16.0614 2.49257 18.2408 0.715099 19.7411C0.260619 20.1296 0 20.6942 0 21.2915C0 22.4175 0.917303 23.3333 2.04494 23.3333H21.3265C22.4544 23.3333 23.3717 22.4175 23.3717 21.2915C23.3717 20.6942 23.111 20.1296 22.6459 19.7319Z" fill="#209A75"/>
</svg>
