<svg width="33" height="46" viewBox="0 0 33 46" fill="none" xmlns="http://www.w3.org/2000/svg">
<g id="drag-indicator">
<path id="Vector" d="M12.972 23.2727C12.972 24.8018 14.2099 26.0415 15.7369 26.0415C17.2638 26.0415 18.5017 24.8018 18.5017 23.2727C18.5017 21.7435 17.2638 20.5039 15.7369 20.5039C14.2099 20.5039 12.972 21.7435 12.972 23.2727Z" fill="#167DB7"/>
<path id="Vector_2" d="M12.972 32.6174C12.972 34.1466 14.2099 35.3862 15.7369 35.3862C17.2638 35.3862 18.5017 34.1466 18.5017 32.6174C18.5017 31.0883 17.2638 29.8486 15.7369 29.8486C14.2099 29.8486 12.972 31.0883 12.972 32.6174Z" fill="#167DB7"/>
<path id="Vector_3" d="M12.972 13.928C12.972 15.4571 14.2099 16.6967 15.7369 16.6967C17.2638 16.6967 18.5017 15.4571 18.5017 13.928C18.5017 12.3988 17.2638 11.1592 15.7369 11.1592C14.2099 11.1592 12.972 12.3988 12.972 13.928Z" fill="#167DB7"/>
</g>
</svg>
