<svg width="28" height="28" viewBox="0 0 28 28" fill="none" xmlns="http://www.w3.org/2000/svg">
<g id="Frame">
<path id="Vector" d="M7 9.33317V8.1665C7 4.30051 10.134 1.1665 14 1.1665C17.866 1.1665 21 4.30051 21 8.1665V9.33317H23.3333C23.9777 9.33317 24.5 9.85551 24.5 10.4998V24.4998C24.5 25.1442 23.9777 25.6665 23.3333 25.6665H4.66667C4.02234 25.6665 3.5 25.1442 3.5 24.4998V10.4998C3.5 9.85551 4.02234 9.33317 4.66667 9.33317H7ZM22.1667 11.6665H5.83333V23.3332H22.1667V11.6665ZM12.8333 18.3543C12.1359 17.9509 11.6667 17.1969 11.6667 16.3332C11.6667 15.0445 12.7113 13.9998 14 13.9998C15.2887 13.9998 16.3333 15.0445 16.3333 16.3332C16.3333 17.1969 15.8641 17.9509 15.1667 18.3543V20.9998H12.8333V18.3543ZM9.33333 9.33317H18.6667V8.1665C18.6667 5.58917 16.5773 3.49984 14 3.49984C11.4227 3.49984 9.33333 5.58917 9.33333 8.1665V9.33317Z" fill="white"/>
</g>
</svg>
