<svg width="48" height="49" viewBox="0 0 48 49" fill="none" xmlns="http://www.w3.org/2000/svg">
<g id="fluent:building-retail-more-32-regular">
<path id="Vector" d="M15 33.0859C15.7956 33.0859 16.5587 32.7699 17.1213 32.2073C17.6839 31.6446 18 30.8816 18 30.0859C18 29.2903 17.6839 28.5272 17.1213 27.9646C16.5587 27.402 15.7956 27.0859 15 27.0859C14.2043 27.0859 13.4413 27.402 12.8787 27.9646C12.3161 28.5272 12 29.2903 12 30.0859C12 30.8816 12.3161 31.6446 12.8787 32.2073C13.4413 32.7699 14.2043 33.0859 15 33.0859ZM27 30.0859C27 30.8816 26.6839 31.6446 26.1213 32.2073C25.5587 32.7699 24.7956 33.0859 24 33.0859C23.2043 33.0859 22.4413 32.7699 21.8787 32.2073C21.3161 31.6446 21 30.8816 21 30.0859C21 29.2903 21.3161 28.5272 21.8787 27.9646C22.4413 27.402 23.2043 27.0859 24 27.0859C24.7956 27.0859 25.5587 27.402 26.1213 27.9646C26.6839 28.5272 27 29.2903 27 30.0859ZM33 33.0859C33.7956 33.0859 34.5587 32.7699 35.1213 32.2073C35.6839 31.6446 36 30.8816 36 30.0859C36 29.2903 35.6839 28.5272 35.1213 27.9646C34.5587 27.402 33.7956 27.0859 33 27.0859C32.2043 27.0859 31.4413 27.402 30.8787 27.9646C30.3161 28.5272 30 29.2903 30 30.0859C30 30.8816 30.3161 31.6446 30.8787 32.2073C31.4413 32.7699 32.2043 33.0859 33 33.0859ZM9.19499 6.21644C9.61724 5.70635 10.1469 5.29574 10.7461 5.01389C11.3453 4.73205 11.9993 4.58592 12.6615 4.58594H35.34C36.0024 4.5857 36.6567 4.73172 37.2562 5.01357C37.8557 5.29543 38.3856 5.70615 38.808 6.21644L45.8055 14.6734C47.424 16.6294 46.032 19.5859 43.494 19.5859H42V38.7109C42 39.3511 41.8739 39.9851 41.6289 40.5765C41.3839 41.168 41.0248 41.7054 40.5721 42.1581C40.1194 42.6108 39.582 42.9699 38.9906 43.2149C38.3991 43.4598 37.7652 43.5859 37.125 43.5859H10.875C9.58206 43.5859 8.34208 43.0723 7.42784 42.1581C6.5136 41.2438 5.99999 40.0039 5.99999 38.7109V19.5859H4.50899C1.96949 19.5859 0.578986 16.6294 2.19749 14.6734L9.19499 6.21644ZM8.99999 19.5859V38.7109C8.99999 39.7459 9.83999 40.5859 10.875 40.5859H37.125C38.16 40.5859 39 39.7459 39 38.7109V19.5859H8.99999ZM12.6615 7.58594C12.4409 7.58595 12.223 7.63461 12.0234 7.72847C11.8237 7.82233 11.6472 7.95906 11.5065 8.12894L4.50899 16.5859H43.4925L36.495 8.12894C36.3542 7.95906 36.1778 7.82233 35.9781 7.72847C35.7785 7.63461 35.5606 7.58595 35.34 7.58594H12.6615Z" fill="#167DB7"/>
</g>
</svg>
