<svg width="24" height="24" viewBox="0 0 24 24" fill="none" xmlns="http://www.w3.org/2000/svg">
<g id="Line">
<path id="Vector" d="M5.45472 0.0200195C5.02073 0.0200195 4.60452 0.192139 4.29764 0.498514C3.99076 0.804888 3.81836 1.22042 3.81836 1.6537V4.92106C3.81836 5.06549 3.87583 5.204 3.97812 5.30612C4.08041 5.40825 4.21915 5.46562 4.36381 5.46562H7.63654C7.78121 5.46562 7.91994 5.40825 8.02224 5.30612C8.12453 5.204 8.182 5.06549 8.182 4.92106V1.6537C8.182 1.22042 8.00959 0.804888 7.70272 0.498514C7.39584 0.192139 6.97962 0.0200195 6.54563 0.0200195H5.45472Z" fill="#209A75"/>
<path id="Vector_2" d="M17.4542 0.0200195C17.0202 0.0200195 16.604 0.192139 16.2972 0.498514C15.9903 0.804888 15.8179 1.22042 15.8179 1.6537V4.92106C15.8179 5.06549 15.8753 5.204 15.9776 5.30612C16.0799 5.40825 16.2187 5.46562 16.3633 5.46562H19.6361C19.7807 5.46562 19.9195 5.40825 20.0217 5.30612C20.124 5.204 20.1815 5.06549 20.1815 4.92106V1.6537C20.1815 1.22042 20.0091 0.804888 19.7022 0.498514C19.3953 0.192139 18.9791 0.0200195 18.5451 0.0200195H17.4542Z" fill="#209A75"/>
<path id="Vector_3" d="M21.2727 2.74268V4.92092C21.2727 5.3542 21.1003 5.76973 20.7934 6.0761C20.4866 6.38248 20.0704 6.5546 19.6364 6.5546H16.3636C15.9296 6.5546 15.5134 6.38248 15.2066 6.0761C14.8997 5.76973 14.7273 5.3542 14.7273 4.92092V2.74268H9.27273V4.92092C9.27273 5.3542 9.10033 5.76973 8.79345 6.0761C8.48657 6.38248 8.07035 6.5546 7.63636 6.5546H4.36364C3.92965 6.5546 3.51343 6.38248 3.20655 6.0761C2.89967 5.76973 2.72727 5.3542 2.72727 4.92092V2.74268C2.00396 2.74268 1.31026 3.02954 0.7988 3.54017C0.287337 4.05079 0 4.74334 0 5.46548V7.64372H24V5.46548C24 4.74334 23.7127 4.05079 23.2012 3.54017C22.6897 3.02954 21.996 2.74268 21.2727 2.74268Z" fill="#209A75"/>
<path id="Vector_4" d="M0 21.2573C0 21.9794 0.287337 22.672 0.7988 23.1826C1.31026 23.6932 2.00396 23.9801 2.72727 23.9801H21.2727C21.996 23.9801 22.6897 23.6932 23.2012 23.1826C23.7127 22.672 24 21.9794 24 21.2573V8.73242H0V21.2573ZM15.1145 12.931C15.0637 12.9818 15.0033 13.022 14.9369 13.0495C14.8704 13.077 14.7992 13.0911 14.7273 13.0911C14.6553 13.0911 14.5841 13.077 14.5177 13.0495C14.4512 13.022 14.3909 12.9818 14.34 12.931C14.2891 12.8802 14.2488 12.8199 14.2213 12.7536C14.1938 12.6872 14.1796 12.6161 14.1796 12.5443C14.1796 12.4725 14.1938 12.4014 14.2213 12.3351C14.2488 12.2688 14.2891 12.2085 14.34 12.1577L15.4309 11.0686C15.5076 10.993 15.605 10.9418 15.7108 10.9215C15.8166 10.9011 15.9261 10.9125 16.0255 10.9542C16.1251 10.9951 16.2103 11.0645 16.2705 11.1536C16.3307 11.2428 16.3631 11.3477 16.3636 11.4552V19.6236H16.9091C17.0538 19.6236 17.1925 19.681 17.2948 19.7831C17.3971 19.8852 17.4545 20.0238 17.4545 20.1682C17.4545 20.3126 17.3971 20.4511 17.2948 20.5532C17.1925 20.6554 17.0538 20.7127 16.9091 20.7127H14.7273C14.5826 20.7127 14.4439 20.6554 14.3416 20.5532C14.2393 20.4511 14.1818 20.3126 14.1818 20.1682C14.1818 20.0238 14.2393 19.8852 14.3416 19.7831C14.4439 19.681 14.5826 19.6236 14.7273 19.6236H15.2727V12.7676L15.1145 12.931ZM9.81818 16.3563H7.09091C6.94625 16.3563 6.80751 16.2989 6.70521 16.1968C6.60292 16.0946 6.54545 15.9561 6.54545 15.8117C6.54545 15.6673 6.60292 15.5288 6.70521 15.4266C6.80751 15.3245 6.94625 15.2671 7.09091 15.2671H9.81818C9.96285 15.2671 10.1016 15.2098 10.2039 15.1076C10.3062 15.0055 10.3636 14.867 10.3636 14.7226V12.5443C10.3636 12.3999 10.3062 12.2614 10.2039 12.1593C10.1016 12.0572 9.96285 11.9998 9.81818 11.9998H7.09091C6.94625 11.9998 6.80751 11.9424 6.70521 11.8403C6.60292 11.7382 6.54545 11.5996 6.54545 11.4552C6.54545 11.3108 6.60292 11.1723 6.70521 11.0702C6.80751 10.968 6.94625 10.9107 7.09091 10.9107H9.81818C10.2522 10.9107 10.6684 11.0828 10.9753 11.3892C11.2821 11.6955 11.4545 12.1111 11.4545 12.5443V14.7226C11.4536 15.1249 11.3041 15.5127 11.0345 15.8117C11.3041 16.1107 11.4536 16.4985 11.4545 16.9008V19.0791C11.4545 19.5123 11.2821 19.9279 10.9753 20.2343C10.6684 20.5406 10.2522 20.7127 9.81818 20.7127H7.09091C6.94625 20.7127 6.80751 20.6554 6.70521 20.5532C6.60292 20.4511 6.54545 20.3126 6.54545 20.1682C6.54545 20.0238 6.60292 19.8852 6.70521 19.7831C6.80751 19.681 6.94625 19.6236 7.09091 19.6236H9.81818C9.96285 19.6236 10.1016 19.5663 10.2039 19.4641C10.3062 19.362 10.3636 19.2235 10.3636 19.0791V16.9008C10.3636 16.7564 10.3062 16.6179 10.2039 16.5158C10.1016 16.4136 9.96285 16.3563 9.81818 16.3563Z" fill="#209A75"/>
</g>
</svg>
