<svg width="24" height="24" viewBox="0 0 24 24" fill="none" xmlns="http://www.w3.org/2000/svg">
<g id="material-symbols-light:screenshot-monitor">
<path id="Vector" d="M15.5 15.692H18.692V12.5H17.808V14.808H15.5V15.692ZM5.308 9.5H6.192V7.192H8.5V6.308H5.308V9.5ZM9 20V18H4.616C4.15533 18 3.771 17.846 3.463 17.538C3.155 17.23 3.00067 16.8453 3 16.384V5.616C3 5.15533 3.15433 4.771 3.463 4.463C3.77167 4.155 4.15567 4.00067 4.615 4H19.385C19.845 4 20.229 4.15433 20.537 4.463C20.845 4.77167 20.9993 5.156 21 5.616V16.385C21 16.845 20.8457 17.2293 20.537 17.538C20.2283 17.8467 19.8443 18.0007 19.385 18H15V20H9Z" fill="#167DB7"/>
</g>
</svg>
