<svg width="24" height="25" viewBox="0 0 24 25" fill="none" xmlns="http://www.w3.org/2000/svg">
<path id="Vector" d="M22.6839 10.3525L20.8039 10.1135C20.6489 9.6365 20.4578 9.1765 20.2348 8.7395L21.3959 7.2445C21.8659 6.6395 21.8109 5.7855 21.2739 5.2655L19.6988 3.6905C19.1738 3.1485 18.3198 3.0945 17.7137 3.5635L16.2207 4.7245C15.7837 4.5015 15.3236 4.3105 14.8456 4.1555L14.6066 2.2785C14.5166 1.5255 13.8776 0.958496 13.1205 0.958496H10.8805C10.1234 0.958496 9.4844 1.5255 9.39439 2.2755L9.15538 4.1555C8.67736 4.3105 8.21734 4.5005 7.78032 4.7245L6.28626 3.5635C5.68224 3.0945 4.8282 3.1485 4.30718 3.6855L2.73211 5.2595C2.19009 5.7855 2.13509 6.6395 2.60511 7.2455L3.76616 8.7395C3.54215 9.1765 3.35214 9.6365 3.19713 10.1135L1.32006 10.3525C0.567024 10.4425 0 11.0815 0 11.8385V14.0785C0 14.8355 0.567024 15.4745 1.31705 15.5645L3.19713 15.8035C3.35214 16.2805 3.54315 16.7405 3.76616 17.1775L2.60511 18.6725C2.13509 19.2775 2.19009 20.1315 2.72711 20.6515L4.30218 22.2265C4.8282 22.7675 5.68124 22.8215 6.28726 22.3525L7.78132 21.1915C8.21834 21.4155 8.67836 21.6065 9.15538 21.7605L9.39439 23.6365C9.4844 24.3915 10.1234 24.9585 10.8805 24.9585H13.1205C13.8776 24.9585 14.5166 24.3915 14.6066 23.6415L14.8456 21.7615C15.3226 21.6065 15.7827 21.4155 16.2197 21.1925L17.7147 22.3535C18.3198 22.8235 19.1738 22.7685 19.6938 22.2315L21.2689 20.6565C21.8109 20.1305 21.8659 19.2775 21.3959 18.6715L20.2348 17.1775C20.4589 16.7405 20.6499 16.2805 20.8039 15.8035L22.6799 15.5645C23.433 15.4745 24 14.8355 24 14.0785V11.8385C24.001 11.0815 23.434 10.4425 22.6839 10.3525ZM12.0005 17.9585C9.24338 17.9585 7.00029 15.7155 7.00029 12.9585C7.00029 10.2015 9.24338 7.9585 12.0005 7.9585C14.7576 7.9585 17.0007 10.2015 17.0007 12.9585C17.0007 15.7155 14.7576 17.9585 12.0005 17.9585Z" fill="#209A75"/>
</svg>
