<svg width="24" height="25" viewBox="0 0 24 25" fill="none" xmlns="http://www.w3.org/2000/svg">
<g id="bx:support">
<path id="Vector" d="M12 2.9585C6.486 2.9585 2 7.4445 2 12.9585V17.1015C2 18.1255 2.897 18.9585 4 18.9585H5C5.26522 18.9585 5.51957 18.8531 5.70711 18.6656C5.89464 18.4781 6 18.2237 6 17.9585V12.8155C6 12.5503 5.89464 12.2959 5.70711 12.1084C5.51957 11.9209 5.26522 11.8155 5 11.8155H4.092C4.648 7.9455 7.978 4.9585 12 4.9585C16.022 4.9585 19.352 7.9455 19.908 11.8155H19C18.7348 11.8155 18.4804 11.9209 18.2929 12.1084C18.1054 12.2959 18 12.5503 18 12.8155V18.9585C18 20.0615 17.103 20.9585 16 20.9585H14V19.9585H10V22.9585H16C18.206 22.9585 20 21.1645 20 18.9585C21.103 18.9585 22 18.1255 22 17.1015V12.9585C22 7.4445 17.514 2.9585 12 2.9585Z" fill="#209A75"/>
</g>
</svg>
