<svg width="28" height="28" viewBox="0 0 28 28" fill="none" xmlns="http://www.w3.org/2000/svg">
<g id="Icon">
<path id="Vector" d="M23.3334 25.6665H21.0001V23.3332C21.0001 21.4001 19.4331 19.8332 17.5001 19.8332H10.5001C8.56709 19.8332 7.00008 21.4001 7.00008 23.3332V25.6665H4.66675V23.3332C4.66675 20.1115 7.27842 17.4998 10.5001 17.4998H17.5001C20.7217 17.4998 23.3334 20.1115 23.3334 23.3332V25.6665ZM14.0001 15.1665C10.1341 15.1665 7.00008 12.0325 7.00008 8.1665C7.00008 4.30051 10.1341 1.1665 14.0001 1.1665C17.8661 1.1665 21.0001 4.30051 21.0001 8.1665C21.0001 12.0325 17.8661 15.1665 14.0001 15.1665ZM14.0001 12.8332C16.5774 12.8332 18.6667 10.7438 18.6667 8.1665C18.6667 5.58917 16.5774 3.49984 14.0001 3.49984C11.4228 3.49984 9.33341 5.58917 9.33341 8.1665C9.33341 10.7438 11.4228 12.8332 14.0001 12.8332Z" fill="white"/>
</g>
</svg>
